<svg xmlns="http://www.w3.org/2000/svg" width="250" height="50" viewBox="0 0 250 50">
  <!-- Background -->
  <rect width="250" height="50" rx="10" fill="yellow"/>

  <!-- Text -->
  <text x="50" y="30" fill="black" font-family="Verdana, Geneva, sans-serif" font-size="20" text-anchor="start">JavaScript</text>

  <!-- JavaScript Icon -->
  <g transform="translate(150, 10) scale(1.5)">
    <path d="M0 0h24v24H0z" fill="none"/>
    <path fill="#f7df1e" d="M12 .396L1.36 6v12l10.64 5.604L22.64 18V6L12 .396z"/>
    <path fill="#000" d="M10.68 15.732c.292.485.675.894 1.35.894.568 0 .931-.283.931-.675 0-.469-.374-.634-1.01-.903l-.348-.149c-1-.425-1.665-.953-1.665-2.075 0-1.036.792-1.822 2.032-1.822.884 0 1.521.31 1.98 1.113l-1.1.703c-.244-.423-.51-.59-.916-.59-.417 0-.683.264-.683.59 0 .408.264.574.876.82l.348.149c1.182.506 1.84 1.014 1.84 2.206 0 1.264-.994 1.97-2.324 1.97-1.299 0-2.135-.667-2.557-1.526l1.107-.649zm6.879-.422c-.244.423-.548.774-1.166.774-.57 0-.917-.38-.917-.89 0-.753.567-.986 1.383-1.348l.345-.149c1.182-.506 1.84-1.014 1.84-2.206 0-1.267-.994-1.97-2.324-1.97-1.299 0-2.135.667-2.557 1.526l1.107.649c.292-.485.675-.894 1.35-.894.568 0 .931.283.931.675 0 .469-.374.634-1.01.903l-.348.149c-1 .425-1.665.953-1.665 2.075 0 1.036.792 1.822 2.032 1.822.884 0 1.521-.31 1.98-1.113l-1.1-.703z"/>
  </g>
</svg>