<svg xmlns="http://www.w3.org/2000/svg" width="250" height="50" viewBox="0 0 250 50">
  <!-- Background -->
  <rect width="250" height="50" rx="10" fill="yellow"/>

  <!-- Text -->
  <text x="50" y="30" fill="black" font-family="Verdana, Geneva, sans-serif" font-size="20" text-anchor="start">JavaScript</text>

  <!-- JavaScript Icon -->
  <g transform="translate(150, 10) scale(1.5)">
    <path d="M0 0h24v24H0z" fill="none"/>
    <path fill="#000" d="M10.012 15.894c.38.595.877 1.096 1.754 1.096.737 0 1.204-.368 1.204-.877 0-.61-.48-.826-1.296-1.178l-.447-.192c-1.29-.548-2.145-1.233-2.145-2.678 0-1.338 1.02-2.353 2.618-2.353 1.136 0 1.955.395 2.544 1.42l-1.39.89c-.307-.548-.64-.764-1.154-.764-.524 0-.857.333-.857.764 0 .534.333.75 1.106 1.076l.446.192c1.523.652 2.375 1.305 2.375 2.834 0 1.62-1.274 2.517-2.981 2.517-1.667 0-2.743-.857-3.286-1.963l1.419-.832zm9.243-5.01c-.307-.548-.595-.964-1.296-.964-.662 0-1.086.403-1.086.964 0 .573.425.808 1.105 1.076l.445.192c1.523.652 2.374 1.305 2.374 2.834 0 1.62-1.274 2.517-2.981 2.517-1.667 0-2.743-.857-3.286-1.963l1.42-.832c.38.595.877 1.096 1.754 1.096.738 0 1.204-.368 1.204-.877 0-.61-.48-.826-1.296-1.178l-.446-.192c-1.29-.548-2.145-1.233-2.145-2.678 0-1.338 1.02-2.353 2.618-2.353 1.136 0 1.955.395 2.544 1.42l-1.39.89z"/>
  </g>
</svg>